<mxfile host="app.diagrams.net" agent="Mozilla/5.0 (Windows NT 10.0; Win64; x64) AppleWebKit/537.36 (KHTML, like Gecko) Chrome/131.0.0.0 Safari/537.36 OPR/116.0.0.0" version="26.0.16">
  <diagram name="Página-1" id="ilZtp8OwoLsIPyuOU3xd">
    <mxGraphModel dx="1570" dy="414" grid="1" gridSize="10" guides="1" tooltips="1" connect="1" arrows="1" fold="1" page="1" pageScale="1" pageWidth="827" pageHeight="1169" math="0" shadow="0">
      <root>
        <mxCell id="0" />
        <mxCell id="1" parent="0" />
        <mxCell id="MxKnkgdGXX4MM_AqsNn1-1" value="INÍCIO" style="ellipse;whiteSpace=wrap;html=1;" vertex="1" parent="1">
          <mxGeometry x="180" y="110" width="130" height="80" as="geometry" />
        </mxCell>
        <mxCell id="MxKnkgdGXX4MM_AqsNn1-2" value="" style="shape=flexArrow;endArrow=classic;html=1;rounded=0;exitX=1;exitY=0.5;exitDx=0;exitDy=0;" edge="1" parent="1" source="MxKnkgdGXX4MM_AqsNn1-1" target="MxKnkgdGXX4MM_AqsNn1-4">
          <mxGeometry width="50" height="50" relative="1" as="geometry">
            <mxPoint x="330" y="180" as="sourcePoint" />
            <mxPoint x="380" y="150" as="targetPoint" />
          </mxGeometry>
        </mxCell>
        <mxCell id="MxKnkgdGXX4MM_AqsNn1-4" value="GERAR RELATÓRIO&lt;div&gt;(FORMULÁRIO)&lt;/div&gt;" style="rounded=0;whiteSpace=wrap;html=1;" vertex="1" parent="1">
          <mxGeometry x="371" y="120" width="120" height="60" as="geometry" />
        </mxCell>
        <mxCell id="MxKnkgdGXX4MM_AqsNn1-5" value="" style="shape=flexArrow;endArrow=classic;html=1;rounded=0;exitX=1;exitY=0.521;exitDx=0;exitDy=0;exitPerimeter=0;" edge="1" parent="1" source="MxKnkgdGXX4MM_AqsNn1-4" target="MxKnkgdGXX4MM_AqsNn1-6">
          <mxGeometry width="50" height="50" relative="1" as="geometry">
            <mxPoint x="500" y="160" as="sourcePoint" />
            <mxPoint x="570" y="150" as="targetPoint" />
          </mxGeometry>
        </mxCell>
        <mxCell id="MxKnkgdGXX4MM_AqsNn1-6" value="List" style="swimlane;fontStyle=0;childLayout=stackLayout;horizontal=1;startSize=30;horizontalStack=0;resizeParent=1;resizeParentMax=0;resizeLast=0;collapsible=1;marginBottom=0;whiteSpace=wrap;html=1;" vertex="1" parent="1">
          <mxGeometry x="560" y="30" width="140" height="240" as="geometry" />
        </mxCell>
        <mxCell id="MxKnkgdGXX4MM_AqsNn1-7" value="dataInicial" style="text;strokeColor=none;fillColor=none;align=left;verticalAlign=middle;spacingLeft=4;spacingRight=4;overflow=hidden;points=[[0,0.5],[1,0.5]];portConstraint=eastwest;rotatable=0;whiteSpace=wrap;html=1;" vertex="1" parent="MxKnkgdGXX4MM_AqsNn1-6">
          <mxGeometry y="30" width="140" height="30" as="geometry" />
        </mxCell>
        <mxCell id="MxKnkgdGXX4MM_AqsNn1-8" value="dataFinal" style="text;strokeColor=none;fillColor=none;align=left;verticalAlign=middle;spacingLeft=4;spacingRight=4;overflow=hidden;points=[[0,0.5],[1,0.5]];portConstraint=eastwest;rotatable=0;whiteSpace=wrap;html=1;" vertex="1" parent="MxKnkgdGXX4MM_AqsNn1-6">
          <mxGeometry y="60" width="140" height="30" as="geometry" />
        </mxCell>
        <mxCell id="MxKnkgdGXX4MM_AqsNn1-12" value="Ativo" style="text;strokeColor=none;fillColor=none;align=left;verticalAlign=middle;spacingLeft=4;spacingRight=4;overflow=hidden;points=[[0,0.5],[1,0.5]];portConstraint=eastwest;rotatable=0;whiteSpace=wrap;html=1;" vertex="1" parent="MxKnkgdGXX4MM_AqsNn1-6">
          <mxGeometry y="90" width="140" height="30" as="geometry" />
        </mxCell>
        <mxCell id="MxKnkgdGXX4MM_AqsNn1-9" value="Marca" style="text;strokeColor=none;fillColor=none;align=left;verticalAlign=middle;spacingLeft=4;spacingRight=4;overflow=hidden;points=[[0,0.5],[1,0.5]];portConstraint=eastwest;rotatable=0;whiteSpace=wrap;html=1;" vertex="1" parent="MxKnkgdGXX4MM_AqsNn1-6">
          <mxGeometry y="120" width="140" height="30" as="geometry" />
        </mxCell>
        <mxCell id="MxKnkgdGXX4MM_AqsNn1-10" value="Tipo" style="text;strokeColor=none;fillColor=none;align=left;verticalAlign=middle;spacingLeft=4;spacingRight=4;overflow=hidden;points=[[0,0.5],[1,0.5]];portConstraint=eastwest;rotatable=0;whiteSpace=wrap;html=1;" vertex="1" parent="MxKnkgdGXX4MM_AqsNn1-6">
          <mxGeometry y="150" width="140" height="30" as="geometry" />
        </mxCell>
        <mxCell id="MxKnkgdGXX4MM_AqsNn1-11" value="UsuarioQueCadastrou" style="text;strokeColor=none;fillColor=none;align=left;verticalAlign=middle;spacingLeft=4;spacingRight=4;overflow=hidden;points=[[0,0.5],[1,0.5]];portConstraint=eastwest;rotatable=0;whiteSpace=wrap;html=1;" vertex="1" parent="MxKnkgdGXX4MM_AqsNn1-6">
          <mxGeometry y="180" width="140" height="30" as="geometry" />
        </mxCell>
        <mxCell id="MxKnkgdGXX4MM_AqsNn1-13" value="TipoMov" style="text;strokeColor=none;fillColor=none;align=left;verticalAlign=middle;spacingLeft=4;spacingRight=4;overflow=hidden;points=[[0,0.5],[1,0.5]];portConstraint=eastwest;rotatable=0;whiteSpace=wrap;html=1;" vertex="1" parent="MxKnkgdGXX4MM_AqsNn1-6">
          <mxGeometry y="210" width="140" height="30" as="geometry" />
        </mxCell>
        <mxCell id="MxKnkgdGXX4MM_AqsNn1-14" value="" style="shape=flexArrow;endArrow=classic;html=1;rounded=0;exitX=0.47;exitY=0.959;exitDx=0;exitDy=0;exitPerimeter=0;entryX=0.498;entryY=0.013;entryDx=0;entryDy=0;entryPerimeter=0;" edge="1" parent="1" source="MxKnkgdGXX4MM_AqsNn1-13" target="MxKnkgdGXX4MM_AqsNn1-16">
          <mxGeometry width="50" height="50" relative="1" as="geometry">
            <mxPoint x="520" y="230" as="sourcePoint" />
            <mxPoint x="626" y="350" as="targetPoint" />
          </mxGeometry>
        </mxCell>
        <mxCell id="MxKnkgdGXX4MM_AqsNn1-16" value="Realizar pesquisa?" style="rhombus;whiteSpace=wrap;html=1;" vertex="1" parent="1">
          <mxGeometry x="587" y="350" width="80" height="80" as="geometry" />
        </mxCell>
        <mxCell id="MxKnkgdGXX4MM_AqsNn1-17" value="" style="shape=flexArrow;endArrow=classic;html=1;rounded=0;exitX=0.99;exitY=0.505;exitDx=0;exitDy=0;exitPerimeter=0;" edge="1" parent="1" source="MxKnkgdGXX4MM_AqsNn1-16" target="MxKnkgdGXX4MM_AqsNn1-19">
          <mxGeometry width="50" height="50" relative="1" as="geometry">
            <mxPoint x="670" y="390" as="sourcePoint" />
            <mxPoint x="730" y="390" as="targetPoint" />
          </mxGeometry>
        </mxCell>
        <mxCell id="MxKnkgdGXX4MM_AqsNn1-19" value="Nada acontece/Limpar Formulário" style="rounded=0;whiteSpace=wrap;html=1;" vertex="1" parent="1">
          <mxGeometry x="740" y="360" width="120" height="60" as="geometry" />
        </mxCell>
        <mxCell id="MxKnkgdGXX4MM_AqsNn1-20" value="NÃO" style="text;strokeColor=none;align=center;fillColor=none;html=1;verticalAlign=middle;whiteSpace=wrap;rounded=0;" vertex="1" parent="1">
          <mxGeometry x="660" y="360" width="60" height="30" as="geometry" />
        </mxCell>
        <mxCell id="MxKnkgdGXX4MM_AqsNn1-21" value="" style="shape=flexArrow;endArrow=classic;html=1;rounded=0;exitX=0.009;exitY=0.51;exitDx=0;exitDy=0;exitPerimeter=0;" edge="1" parent="1" source="MxKnkgdGXX4MM_AqsNn1-16" target="MxKnkgdGXX4MM_AqsNn1-22">
          <mxGeometry width="50" height="50" relative="1" as="geometry">
            <mxPoint x="560" y="390" as="sourcePoint" />
            <mxPoint x="510" y="390" as="targetPoint" />
          </mxGeometry>
        </mxCell>
        <mxCell id="MxKnkgdGXX4MM_AqsNn1-22" value="VAI FAZER A FILTRAGEM DAS INFORMAÇÕES ATRAVÉS DAS ESCOLHAS NO FORMULÁRIO" style="rounded=0;whiteSpace=wrap;html=1;" vertex="1" parent="1">
          <mxGeometry x="370" y="360" width="160" height="60" as="geometry" />
        </mxCell>
        <mxCell id="MxKnkgdGXX4MM_AqsNn1-23" value="SIM" style="text;strokeColor=none;align=center;fillColor=none;html=1;verticalAlign=middle;whiteSpace=wrap;rounded=0;" vertex="1" parent="1">
          <mxGeometry x="540" y="360" width="60" height="30" as="geometry" />
        </mxCell>
        <mxCell id="MxKnkgdGXX4MM_AqsNn1-24" value="" style="shape=flexArrow;endArrow=classic;html=1;rounded=0;exitX=0;exitY=0.5;exitDx=0;exitDy=0;" edge="1" parent="1" source="MxKnkgdGXX4MM_AqsNn1-22" target="MxKnkgdGXX4MM_AqsNn1-25">
          <mxGeometry width="50" height="50" relative="1" as="geometry">
            <mxPoint x="280" y="360" as="sourcePoint" />
            <mxPoint x="290" y="390" as="targetPoint" />
          </mxGeometry>
        </mxCell>
        <mxCell id="MxKnkgdGXX4MM_AqsNn1-25" value="GERAR RELATÓRIO&lt;div&gt;APARECE AS INFORMAÇÕES EM FORMA DE TABELA&lt;/div&gt;" style="rounded=0;whiteSpace=wrap;html=1;" vertex="1" parent="1">
          <mxGeometry x="180" y="360" width="120" height="60" as="geometry" />
        </mxCell>
        <mxCell id="MxKnkgdGXX4MM_AqsNn1-26" value="" style="shape=flexArrow;endArrow=classic;html=1;rounded=0;exitX=0.448;exitY=1;exitDx=0;exitDy=0;exitPerimeter=0;entryX=0.5;entryY=0.015;entryDx=0;entryDy=0;entryPerimeter=0;" edge="1" parent="1" source="MxKnkgdGXX4MM_AqsNn1-25" target="MxKnkgdGXX4MM_AqsNn1-28">
          <mxGeometry width="50" height="50" relative="1" as="geometry">
            <mxPoint x="390" y="400" as="sourcePoint" />
            <mxPoint x="233.91000000000008" y="470" as="targetPoint" />
          </mxGeometry>
        </mxCell>
        <mxCell id="MxKnkgdGXX4MM_AqsNn1-28" value="OPÇÕES" style="rhombus;whiteSpace=wrap;html=1;" vertex="1" parent="1">
          <mxGeometry x="194" y="470" width="80" height="80" as="geometry" />
        </mxCell>
        <mxCell id="MxKnkgdGXX4MM_AqsNn1-30" value="" style="shape=flexArrow;endArrow=classic;html=1;rounded=0;exitX=1;exitY=0.5;exitDx=0;exitDy=0;" edge="1" parent="1" source="MxKnkgdGXX4MM_AqsNn1-28" target="MxKnkgdGXX4MM_AqsNn1-31">
          <mxGeometry width="50" height="50" relative="1" as="geometry">
            <mxPoint x="280" y="520" as="sourcePoint" />
            <mxPoint x="340" y="510" as="targetPoint" />
          </mxGeometry>
        </mxCell>
        <mxCell id="MxKnkgdGXX4MM_AqsNn1-31" value="VOLTA PARA A TELA DE MOVIMENTAÇÕES" style="rounded=0;whiteSpace=wrap;html=1;" vertex="1" parent="1">
          <mxGeometry x="354" y="480.0000000000001" width="120" height="60" as="geometry" />
        </mxCell>
        <mxCell id="MxKnkgdGXX4MM_AqsNn1-32" value="SIM" style="text;strokeColor=none;align=center;fillColor=none;html=1;verticalAlign=middle;whiteSpace=wrap;rounded=0;" vertex="1" parent="1">
          <mxGeometry x="540" y="360" width="60" height="30" as="geometry" />
        </mxCell>
        <mxCell id="MxKnkgdGXX4MM_AqsNn1-33" value="VOLTAR" style="text;strokeColor=none;align=center;fillColor=none;html=1;verticalAlign=middle;whiteSpace=wrap;rounded=0;" vertex="1" parent="1">
          <mxGeometry x="274" y="480" width="60" height="30" as="geometry" />
        </mxCell>
        <mxCell id="MxKnkgdGXX4MM_AqsNn1-34" value="" style="shape=flexArrow;endArrow=classic;html=1;rounded=0;exitX=0.695;exitY=0.812;exitDx=0;exitDy=0;exitPerimeter=0;entryX=0;entryY=0;entryDx=0;entryDy=0;" edge="1" parent="1" source="MxKnkgdGXX4MM_AqsNn1-28" target="MxKnkgdGXX4MM_AqsNn1-36">
          <mxGeometry width="50" height="50" relative="1" as="geometry">
            <mxPoint x="210" y="560" as="sourcePoint" />
            <mxPoint x="330" y="610" as="targetPoint" />
          </mxGeometry>
        </mxCell>
        <mxCell id="MxKnkgdGXX4MM_AqsNn1-35" value="EXCEL" style="text;strokeColor=none;align=center;fillColor=none;html=1;verticalAlign=middle;whiteSpace=wrap;rounded=0;" vertex="1" parent="1">
          <mxGeometry x="280" y="540" width="60" height="30" as="geometry" />
        </mxCell>
        <mxCell id="MxKnkgdGXX4MM_AqsNn1-36" value="CRIA UM ARQUIVO EXCEL DA TABELA" style="rounded=0;whiteSpace=wrap;html=1;" vertex="1" parent="1">
          <mxGeometry x="334" y="600.0000000000001" width="120" height="60" as="geometry" />
        </mxCell>
        <mxCell id="MxKnkgdGXX4MM_AqsNn1-37" value="" style="shape=flexArrow;endArrow=classic;html=1;rounded=0;exitX=0.5;exitY=1;exitDx=0;exitDy=0;" edge="1" parent="1" source="MxKnkgdGXX4MM_AqsNn1-28">
          <mxGeometry width="50" height="50" relative="1" as="geometry">
            <mxPoint x="220" y="610" as="sourcePoint" />
            <mxPoint x="240" y="630" as="targetPoint" />
          </mxGeometry>
        </mxCell>
        <mxCell id="MxKnkgdGXX4MM_AqsNn1-38" value="CRIA UM ARQUIVO CSV DA TABELA" style="rounded=0;whiteSpace=wrap;html=1;" vertex="1" parent="1">
          <mxGeometry x="200" y="630.0000000000001" width="120" height="60" as="geometry" />
        </mxCell>
        <mxCell id="MxKnkgdGXX4MM_AqsNn1-39" value="" style="shape=flexArrow;endArrow=classic;html=1;rounded=0;exitX=0.341;exitY=0.84;exitDx=0;exitDy=0;exitPerimeter=0;" edge="1" parent="1" source="MxKnkgdGXX4MM_AqsNn1-28">
          <mxGeometry width="50" height="50" relative="1" as="geometry">
            <mxPoint x="220" y="540" as="sourcePoint" />
            <mxPoint x="140" y="600" as="targetPoint" />
          </mxGeometry>
        </mxCell>
        <mxCell id="MxKnkgdGXX4MM_AqsNn1-40" value="CRIA UMA FOTO DA TABELA E A COPIA" style="rounded=0;whiteSpace=wrap;html=1;" vertex="1" parent="1">
          <mxGeometry x="20" y="600.0000000000001" width="120" height="60" as="geometry" />
        </mxCell>
        <mxCell id="MxKnkgdGXX4MM_AqsNn1-41" value="CSV" style="text;strokeColor=none;align=center;fillColor=none;html=1;verticalAlign=middle;whiteSpace=wrap;rounded=0;" vertex="1" parent="1">
          <mxGeometry x="230" y="585" width="60" height="30" as="geometry" />
        </mxCell>
        <mxCell id="MxKnkgdGXX4MM_AqsNn1-42" value="COPY" style="text;strokeColor=none;align=center;fillColor=none;html=1;verticalAlign=middle;whiteSpace=wrap;rounded=0;" vertex="1" parent="1">
          <mxGeometry x="160" y="570" width="60" height="30" as="geometry" />
        </mxCell>
        <mxCell id="MxKnkgdGXX4MM_AqsNn1-43" value="" style="shape=flexArrow;endArrow=classic;html=1;rounded=0;exitX=0.157;exitY=0.687;exitDx=0;exitDy=0;exitPerimeter=0;" edge="1" parent="1" source="MxKnkgdGXX4MM_AqsNn1-28">
          <mxGeometry width="50" height="50" relative="1" as="geometry">
            <mxPoint x="60" y="530" as="sourcePoint" />
            <mxPoint x="120" y="550" as="targetPoint" />
          </mxGeometry>
        </mxCell>
        <mxCell id="MxKnkgdGXX4MM_AqsNn1-44" value="TIRA UM PRINT APENAS DA TABELA" style="rounded=0;whiteSpace=wrap;html=1;" vertex="1" parent="1">
          <mxGeometry y="530.0000000000001" width="120" height="60" as="geometry" />
        </mxCell>
        <mxCell id="MxKnkgdGXX4MM_AqsNn1-45" value="PRINT" style="text;strokeColor=none;align=center;fillColor=none;html=1;verticalAlign=middle;whiteSpace=wrap;rounded=0;" vertex="1" parent="1">
          <mxGeometry x="134" y="540" width="60" height="30" as="geometry" />
        </mxCell>
        <mxCell id="MxKnkgdGXX4MM_AqsNn1-46" value="" style="shape=flexArrow;endArrow=classic;html=1;rounded=0;exitX=0.02;exitY=0.502;exitDx=0;exitDy=0;exitPerimeter=0;" edge="1" parent="1" source="MxKnkgdGXX4MM_AqsNn1-28">
          <mxGeometry width="50" height="50" relative="1" as="geometry">
            <mxPoint x="60" y="530" as="sourcePoint" />
            <mxPoint x="80" y="490" as="targetPoint" />
          </mxGeometry>
        </mxCell>
        <mxCell id="MxKnkgdGXX4MM_AqsNn1-49" value="PDF" style="text;strokeColor=none;align=center;fillColor=none;html=1;verticalAlign=middle;whiteSpace=wrap;rounded=0;" vertex="1" parent="1">
          <mxGeometry x="100" y="500" width="60" height="30" as="geometry" />
        </mxCell>
        <mxCell id="MxKnkgdGXX4MM_AqsNn1-50" value="CRIA UM ARQUIVO PDF DA TABELA" style="rounded=0;whiteSpace=wrap;html=1;" vertex="1" parent="1">
          <mxGeometry x="-40" y="460.0000000000001" width="120" height="60" as="geometry" />
        </mxCell>
        <mxCell id="MxKnkgdGXX4MM_AqsNn1-51" value="" style="shape=flexArrow;endArrow=classic;html=1;rounded=0;exitX=0.374;exitY=0.173;exitDx=0;exitDy=0;exitPerimeter=0;" edge="1" parent="1" source="MxKnkgdGXX4MM_AqsNn1-28">
          <mxGeometry width="50" height="50" relative="1" as="geometry">
            <mxPoint x="160" y="540" as="sourcePoint" />
            <mxPoint x="90" y="420" as="targetPoint" />
          </mxGeometry>
        </mxCell>
        <mxCell id="MxKnkgdGXX4MM_AqsNn1-52" value="PESQUISA" style="text;strokeColor=none;align=center;fillColor=none;html=1;verticalAlign=middle;whiteSpace=wrap;rounded=0;rotation=30;" vertex="1" parent="1">
          <mxGeometry x="120" y="450" width="60" height="30" as="geometry" />
        </mxCell>
        <mxCell id="MxKnkgdGXX4MM_AqsNn1-53" value="PERMITE VOCÊ PESQUISAR SOBRE O ATIVO QUE VOCÊ QUER NA TABELA" style="rounded=0;whiteSpace=wrap;html=1;" vertex="1" parent="1">
          <mxGeometry x="-30" y="370.0000000000001" width="120" height="60" as="geometry" />
        </mxCell>
      </root>
    </mxGraphModel>
  </diagram>
</mxfile>
